<svg id="eg1hMC5pZX71" xmlns="http://www.w3.org/2000/svg" xmlns:xlink="http://www.w3.org/1999/xlink" viewBox="0 0 1136.1 171.1" shape-rendering="geometricPrecision" text-rendering="geometricPrecision"><defs><linearGradient id="eg1hMC5pZX73-fill" x1="-16.8881" y1="87.3819" x2="1134.4093" y2="87.3819" spreadMethod="pad" gradientUnits="userSpaceOnUse" gradientTransform="translate(0 0)"><stop id="eg1hMC5pZX73-fill-0" offset="0%" stop-color="#033d8a"/><stop id="eg1hMC5pZX73-fill-1" offset="49.86%" stop-color="#2a9ef5"/><stop id="eg1hMC5pZX73-fill-2" offset="100%" stop-color="#00d8cc"/></linearGradient></defs><g mask="url(#eg1hMC5pZX74)"><path id="eg1hMC5pZX73" d="M412.7,171v0v0v0Zm701.2-66.3v0l-40.6,66.4h-4.6l-18.3-30-18.3,30h-2.3l19.5-31.8-19.4-31.7-18.9,30.8v0L991,171h-2.3l18.9-30.9h-78.9l18.9,30.7.1.1h-2.3l-19-30.9h-38.8l18.9,30.8h-2.3l-18.9-30.9h-39l18.9,30.9h-2.3L844.7,141l-18.2,30h-4.5l-1.5-2.5v0l-16.8-27.4-18.3,30h-2.4l19.5-31.8-17.3-28.4-2.1-3.4L744.2,171h-2.3l18.9-30.9h-78.9l19,30.9h-2.3l-19-30.9h-38.8l18.9,30.8v-.1.1h-2.4L638.4,140h-39l18.9,30.9h-2.3l-18.3-30-18.3,30h-4.6l-14.9-24.5-3.3-5.5L538.3,171h-2.3l19.5-31.8-3.9-6.4L536,107.5v0l-29.7,48.6-9.1,14.9h-2.3l18.9-30.9h-78.9l18.9,30.7.1.1h-2.3l-19-30.9h-38.8l18.9,30.8h-2.3l-18.9-30.9h-39l18.9,30.9h-2.3L350.9,141l-18.3,30h-4.5l-1.5-2.5v0l-16.8-27.4-18.3,30h-2.3l19.5-31.8-17.3-28.4-2.1-3.4-39,63.5h-2.3l18.8-30.9h-78.8L207,171h-2.3l-19-30.9h-38.8l18.9,30.8v-.1.1h-2.3L144.6,140h-39v0l18.9,30.9h-2.3l-18.3-30-18.3,30h-4.6L70.7,154v0l-8-13-18.3,30h-2.3l19.5-31.8-8.5-13.9-10.9-17.8v0L3.3,171h-2.3l40-65.4L19.9,71.1h43.4h81.3l20-32.7L143.4,3.7h43.4h83.4L249.7,37.3v0L229.3,70.6l39.5.4h41.6h81.3l20-32.7L390.5,3.8h43.4h83.4L496.8,37.4v0L476.2,71.1h37.6h43.4h81.3l20-32.7L637.2,3.7h43.4h83.4L743.5,37.3v0L723.1,70.6l39.5.4h41.6h81.3l20-32.7L884.3,3.8h43.4h83.4L990.5,37.4v0L970,71.1h39.6v0h41.4h83.4l-20.5,33.6ZM987.2,39.3h-14.3-24.5l-20,32.8l19.4,31.7l39.4-64.5ZM928.9,5.7l19.5,31.7h23.7h16.3l19.4-31.8h-78.9ZM906.6,36.5v0l20.6,33.7l19.5-31.8-.3-.6L926.6,5.7h-38.8l18.8,30.8Zm-39.4,68.2h14.1h24.8l20-32.8-19.4-31.7-39.5,64.5ZM805.3,72.9l19.5,31.7h23.7h16.3l19.4-31.8h-78.9ZM740.1,39.2h-15.3-23.5l-20,32.7l19.4,31.7l39.4-64.4ZM681.7,5.6l19.5,31.7h24.7h15.2L760.5,5.5v0h-78.8ZM659.5,36.5v0l20.6,33.6l19.5-31.8L679.4,5.6h-38.8l18.9,30.9Zm-39.4,68.2h14.1h24.8L679,72L659.6,40.3l-39.5,64.4ZM558.3,72.9l19.5,31.7v0h23.7h16.3l19.4-31.8h-78.9Zm-65-33.6h-14.3-24.5l-20,32.8l19.4,31.7l39.4-64.5ZM435,5.7l19.5,31.7h23.7h16.3L513.9,5.6h-78.9ZM412.7,36.5v0l20.6,33.7l19.5-31.8-.3-.6L432.7,5.7h-38.8l18.8,30.8Zm-39.4,68.2h14.1h24.8l20-32.8-19.4-31.7-39.5,64.5ZM311.5,72.9L331,104.6h23.7h16.3l19.4-31.8h-78.9ZM246.2,39.2h-15.3-23.5l-20,32.7l19.4,31.7l39.4-64.4ZM187.9,5.6l19.5,31.7h24.7h15.2L266.7,5.5h-78.8ZM165.7,36.5v0l20.6,33.6l19.5-31.8L185.6,5.6h-38.8v0l18.9,30.9Zm-39.5,68.2h14.1h24.8l20-32.7-19.4-31.7-39.5,64.4ZM64.4,72.9l19.5,31.7v0h23.7h16.3l19.4-31.8v0h-78.9Zm-1.6,64.5l19.5-31.8L62.1,72.9h-38.8v0l18.9,30.8v0l12.6,20.6l8,13.1Zm59.9-30.9h-14.3-24.5l-20,32.8l8.5,13.9L83.3,171v0l39.4-64.5Zm61.9,31.8L165,106.6h-24.7-15.2l-19.4,31.8h78.9Zm41.1,0l-18.9-30.9v.1L186.3,73.9l-19.5,31.8l20.1,32.7l38.8-.1Zm41.2,0L227.5,73.4l-19.6,32.1L228,138.3h38.9Zm21.2-32.7l-20-32.7v0l-38.9-.4l39.4,64.9l19.5-31.8Zm21.7,31.8l19.5-31.8-20.1-32.7v0h-38.8l18.8,30.8v0l3.8,6.2l16.8,27.5Zm60-30.9h-14.3-24.5l-20,32.8l17.3,28.4l2.1,3.4l39.4-64.6Zm61.8,31.8l-19.5-31.7h-24.7-15.2l-19.4,31.8h78.8Zm41.1,0l-18.8-30.8v0L433.3,73.8l-19.5,31.8l20.1,32.7h38.8Zm40.9,0L474.4,74L455,105.6l20,32.7v0h38.6Zm21.3-32.7l-20-32.7v0h-38.9l39.4,64.6l19.5-31.9Zm21.7,31.8L576,105.6L556,72.9v0h-38.8L536,103.7l.1-.1l20.5,33.8Zm60-30.9h-14.3v0h-24.5l-20,32.7l19.4,31.7l39.4-64.4Zm61.8,31.8l-19.5-31.7h-24.7-15.2l-19.4,31.8h78.8Zm41.1,0l-18.9-30.9v.1L680.1,73.9l-19.5,31.8l20.1,32.7l38.8-.1Zm41.3,0L721.4,73.4l-19.6,32.1l20.1,32.8h38.9ZM782,105.6L762,72.9v0l-38.9-.4l39.4,64.9L782,105.6Zm21.7,31.8l19.5-31.8-20.1-32.7v0h-38.8l18.8,30.8v0l3.8,6.2l16.8,27.5Zm60-30.9h-14.3-24.5l-20,32.8l17.3,28.4l2.1,3.4l39.4-64.6Zm61.8,31.8L906,106.5h-24.7-15.2l-19.4,31.8h78.8Zm41.1,0l-18.8-30.8v0L927.2,73.8l-19.5,31.8l20.1,32.7h38.8Zm40.8,0L968.2,74l-19.3,31.6l20,32.7v0h38.5Zm21.3-32.7l-20-32.7v0h-38.9l39.3,64.6l19.6-31.9Zm21.8,31.8l19.4-31.8-20.1-32.7h-38.8l18.8,30.8.1-.1l20.6,33.8Zm60-30.9h-14.3-24.5l-20,32.7L1071,171v0l39.5-64.5Zm1.1-1.8L1131,72.9h-78.9l18.9,30.7.6,1h23.7l16.3.1ZM906.5,171v0v0v0Z" transform="translate(-1 0)" opacity="1" fill="url(#eg1hMC5pZX73-fill)"/><mask id="eg1hMC5pZX74" mask-type="luminance" x="-150%" y="-150%" height="400%" width="400%"><g transform="translate(.000001 0.000001)"><g transform="matrix(-.96322 0 0-.971354 245.438073 208.181968)"><path id="eg1hMC5pZX77" d="M84.900009,172.992907c0,0-64.30001-101.092907-64.30001-101.092907c1.463323-.010282,64.116351.289717,124.000001,0c0,0-59.699991,101.092907-59.699991,101.092907Z" fill="none" stroke="#fff" stroke-width="3" stroke-miterlimit="4.5" stroke-dashoffset="0" stroke-dasharray="361.214352"/><path id="eg1hMC5pZX78" d="M83.899999,105.5L123.9,105.6" transform="translate(.000001 0)" fill="none" stroke="#fff" stroke-width="3" stroke-dashoffset="0" stroke-dasharray="40"/><path id="eg1hMC5pZX79" d="M62.8,139.3l20.5-33.8L62.299999,71.9" fill="none" stroke="#fff" stroke-width="3" stroke-miterlimit="4.5" stroke-dashoffset="0" stroke-dasharray="78.461068"/></g><g transform="translate(.000001 0.000001)"><path id="eg1hMC5pZX711" d="M83.3,173.712163C83.3,173.712163,21.9,71.9,21.9,71.9s122.7,0,122.7,0-61.3,101.812163-61.3,101.812163Z" fill="none" stroke="#fff" stroke-width="3" stroke-miterlimit="4.5" stroke-dashoffset="0" stroke-dasharray="359.829414"/><path id="eg1hMC5pZX712" d="M83.899999,105.5L123.9,105.6" transform="translate(.000001 0)" fill="none" stroke="#fff" stroke-width="3" stroke-dashoffset="0" stroke-dasharray="40"/><path id="eg1hMC5pZX713" d="M62.8,139.3l20.5-33.8-20-33.4" fill="none" stroke="#fff" stroke-width="3" stroke-miterlimit="4.5" stroke-dashoffset="0" stroke-dasharray="78.461068"/></g><g transform="translate(124.000001-66.999999)"><path id="eg1hMC5pZX715" d="M81.799998,171.599998c0,0-61.199999-99.699998-61.199999-99.699998c1.463323-.010282,64.116351.289717,124.000001,0c0,0-62.800002,99.699998-62.800002,99.699998Z" fill="none" stroke="#fff" stroke-width="3" stroke-miterlimit="4.5" stroke-dashoffset="0" stroke-dasharray="359.829414"/><path id="eg1hMC5pZX716" d="M83.899999,105.5L123.9,105.6" transform="translate(.000001 0)" fill="none" stroke="#fff" stroke-width="3" stroke-dashoffset="0" stroke-dasharray="40"/><path id="eg1hMC5pZX717" d="M62.8,139.3l20.5-33.8L62.299999,71.9" transform="translate(-1 0)" fill="none" stroke="#fff" stroke-width="3" stroke-miterlimit="4.5" stroke-dashoffset="0" stroke-dasharray="78.461068"/></g></g><g transform="translate(493 0.000001)"><path id="eg1hMC5pZX719" d="M-1.655951,174.558116l44.870884-69.008114" transform="matrix(.936019 0 0 1 248.850001 0)" fill="none" stroke="#fff" stroke-width="3" stroke-dashoffset="0" stroke-dasharray="82.313523"/><path id="eg1hMC5pZX720" d="M20.89005,140.924119L42.2,105.5" transform="matrix(.952607 0 0 0.945123 268.799994 40.367482)" fill="none" stroke="#fff" stroke-width="3" stroke-dashoffset="0" stroke-dasharray="80.931226"/><path id="eg1hMC5pZX721" d="M20.89005,140.924119L42.2,105.5" transform="matrix(-.95 0 0 0.945123 144.74555 40.367482)" fill="none" stroke="#fff" stroke-width="3" stroke-dashoffset="0" stroke-dasharray="80.931226"/><path id="eg1hMC5pZX722" d="M20.89005,140.924119L42.2,105.5" transform="matrix(-.95 0 0 0.945123 185.74555 40.367482)" fill="none" stroke="#fff" stroke-width="3" stroke-dashoffset="0" stroke-dasharray="80.931226"/><path id="eg1hMC5pZX723" d="M20.89005,140.924119L42.2,105.5" transform="matrix(-.95 0 0 0.945123 227.145549 40.367482)" fill="none" stroke="#fff" stroke-width="3" stroke-dashoffset="0" stroke-dasharray="80.931226"/><path id="eg1hMC5pZX724" d="M229.3,139.3q39.600001-.777958,39.600001,0t-41.400002-68.200001l42.699999.899999" transform="translate(.000002 0.000002)" fill="none" stroke="#fff" stroke-width="3" stroke-linejoin="bevel" stroke-dashoffset="0" stroke-dasharray="162.154162"/></g><g transform="translate(246 0.000001)"><path id="eg1hMC5pZX726" d="M-1.655951,174.558116l44.870884-69.008114" transform="matrix(.936019 0 0 1 248.850001 0)" fill="none" stroke="#fff" stroke-width="3" stroke-dashoffset="0" stroke-dasharray="82.313523"/><path id="eg1hMC5pZX727" d="M20.89005,140.924119L42.2,105.5" transform="matrix(.952607 0 0 0.945123 268.799994 40.367482)" fill="none" stroke="#fff" stroke-width="3" stroke-dashoffset="0" stroke-dasharray="80.931226"/><path id="eg1hMC5pZX728" d="M20.89005,140.924119L42.2,105.5" transform="matrix(-.95 0 0 0.945123 144.74555 40.367482)" fill="none" stroke="#fff" stroke-width="3" stroke-dashoffset="0" stroke-dasharray="80.931226"/><path id="eg1hMC5pZX729" d="M20.89005,140.924119L42.2,105.5" transform="matrix(-.95 0 0 0.945123 185.74555 40.367482)" fill="none" stroke="#fff" stroke-width="3" stroke-dashoffset="0" stroke-dasharray="80.931226"/><path id="eg1hMC5pZX730" d="M20.89005,140.924119L42.2,105.5" transform="matrix(-.95 0 0 0.945123 227.145549 40.367482)" fill="none" stroke="#fff" stroke-width="3" stroke-dashoffset="0" stroke-dasharray="80.931226"/><path id="eg1hMC5pZX731" d="M229.3,139.3q39.600001-.777958,39.600001,0t-41.400002-68.200001l42.699999.899999" transform="translate(.000002 0.000002)" fill="none" stroke="#fff" stroke-width="3" stroke-linejoin="bevel" stroke-dashoffset="0" stroke-dasharray="162.154162"/></g><g transform="translate(0 0.000001)"><path id="eg1hMC5pZX733" d="M0,174.558116L42.2,105.5" fill="none" stroke="#fff" stroke-width="3" stroke-dashoffset="0" stroke-dasharray="80.931226"/><path id="eg1hMC5pZX734" d="M-1.655951,174.558116l44.870884-69.008114" transform="matrix(.936019 0 0 1 248.850001 0)" fill="none" stroke="#fff" stroke-width="3" stroke-dashoffset="0" stroke-dasharray="82.31"/><path id="eg1hMC5pZX735" d="M20.89005,140.924119L42.2,105.5" transform="matrix(.952607 0 0 0.945123 22.099992 40.367482)" fill="none" stroke="#fff" stroke-width="3" stroke-dashoffset="0" stroke-dasharray="80.931226"/><path id="eg1hMC5pZX736" d="M20.89005,140.924119L42.2,105.5" transform="matrix(.952607 0 0 0.945123 268.799994 40.367482)" fill="none" stroke="#fff" stroke-width="3" stroke-dashoffset="0" stroke-dasharray="80.931226"/><path id="eg1hMC5pZX737" d="M20.89005,140.924119L42.2,105.5" transform="matrix(-.95 0 0 0.945123 144.74555 40.367482)" fill="none" stroke="#fff" stroke-width="3" stroke-dashoffset="0" stroke-dasharray="80.931226"/><path id="eg1hMC5pZX738" d="M20.89005,140.924119L42.2,105.5" transform="matrix(-.95 0 0 0.945123 185.74555 40.367482)" fill="none" stroke="#fff" stroke-width="3" stroke-dashoffset="0" stroke-dasharray="80.931226"/><path id="eg1hMC5pZX739" d="M20.89005,140.924119L42.2,105.5" transform="matrix(-.95 0 0 0.945123 227.145549 40.367482)" fill="none" stroke="#fff" stroke-width="3" stroke-dashoffset="0" stroke-dasharray="80.931226"/><path id="eg1hMC5pZX740" d="M229.3,139.3q39.600001-.777958,39.600001,0t-41.400002-68.200001l42.699999.899999" transform="translate(-.999998 0.000002)" fill="none" stroke="#fff" stroke-width="3" stroke-linejoin="bevel" stroke-dashoffset="0" stroke-dasharray="162.154162"/></g><g transform="translate(494 0.000001)"><g transform="translate(371.000001-66.999999)"><path id="eg1hMC5pZX743" d="M82.999999,172.7c0,0-62.4-100.8-62.4-100.8c1.463323-.010282,64.116351.289717,124.000001,0c0,0-61.600001,100.8-61.600001,100.8Z" fill="none" stroke="#fff" stroke-width="3" stroke-miterlimit="4.5" stroke-dashoffset="0" stroke-dasharray="359.829414"/><path id="eg1hMC5pZX744" d="M83.899999,105.5L123.9,105.6" transform="translate(.000001 0)" fill="none" stroke="#fff" stroke-width="3" stroke-dashoffset="0" stroke-dasharray="40"/><path id="eg1hMC5pZX745" d="M62.8,139.3l20.5-33.8L62.299999,71.9" transform="translate(-1 0)" fill="none" stroke="#fff" stroke-width="3" stroke-miterlimit="4.5" stroke-dashoffset="0" stroke-dasharray="78.461068"/></g><g transform="matrix(-1 0 0-.990176 495.500008 210.493423)"><path id="eg1hMC5pZX747" d="M82.999999,172.7c0,0-62.4-100.8-62.4-100.8c1.463323-.010282,64.116351.289717,124.000001,0c0,0-61.600001,100.8-61.600001,100.8Z" transform="translate(1 0)" fill="none" stroke="#fff" stroke-width="3" stroke-miterlimit="4.5" stroke-dashoffset="0" stroke-dasharray="359.829414"/><path id="eg1hMC5pZX748" d="M83.899999,105.5L123.9,105.6" transform="translate(.000001 0)" fill="none" stroke="#fff" stroke-width="3" stroke-dashoffset="0" stroke-dasharray="40"/><path id="eg1hMC5pZX749" d="M62.8,139.3l20.5-33.8L62.299999,71.9" fill="none" stroke="#fff" stroke-width="3" stroke-miterlimit="4.5" stroke-dashoffset="0" stroke-dasharray="78.461068"/></g><g transform="translate(247.000001 0.000001)"><path id="eg1hMC5pZX751" d="M83.3,173.712163C83.3,173.712163,21.9,71.9,21.9,71.9s122.7,0,122.7,0-61.3,101.812163-61.3,101.812163Z" transform="translate(-1 0)" fill="none" stroke="#fff" stroke-width="3" stroke-miterlimit="4.5" stroke-dashoffset="0" stroke-dasharray="359.829414"/><path id="eg1hMC5pZX752" d="M83.899999,105.5L123.9,105.6" transform="translate(.000001 0)" fill="none" stroke="#fff" stroke-width="3" stroke-dashoffset="0" stroke-dasharray="40"/><path id="eg1hMC5pZX753" d="M62.8,139.3l20.5-33.8-20-33.4" transform="translate(-1 0)" fill="none" stroke="#fff" stroke-width="3" stroke-miterlimit="4.5" stroke-dashoffset="0" stroke-dasharray="78.461068"/></g><g transform="translate(493.700022 0.000001)"><path id="eg1hMC5pZX755" d="M81.549979,173.558107c0,0-59.65-101.658109-59.65-101.658109s122.700021.000002,122.700021.000002-63.050021,101.658107-63.050021,101.658107Z" fill="none" stroke="#fff" stroke-width="3" stroke-miterlimit="4.5" stroke-dashoffset="0" stroke-dasharray="359.829414"/><path id="eg1hMC5pZX756" d="M83.899999,105.5L123.9,105.6" transform="translate(.000001 0)" fill="none" stroke="#fff" stroke-width="3" stroke-dashoffset="0" stroke-dasharray="40"/><path id="eg1hMC5pZX757" d="M62.8,139.3l20.5-33.8L62.149979,71.899998" fill="none" stroke="#fff" stroke-width="3" stroke-miterlimit="4.5" stroke-dashoffset="0" stroke-dasharray="78.461068"/></g></g><g transform="translate(246 0.000001)"><g transform="translate(371.000001-66.999999)"><path id="eg1hMC5pZX760" d="M82.999999,172.7c0,0-62.4-100.8-62.4-100.8c1.463323-.010282,64.116351.289717,124.000001,0c0,0-61.600001,100.8-61.600001,100.8Z" fill="none" stroke="#fff" stroke-width="3" stroke-miterlimit="4.5" stroke-dashoffset="0" stroke-dasharray="359.829414"/><path id="eg1hMC5pZX761" d="M83.899999,105.5L123.9,105.6" transform="translate(.000001 0)" fill="none" stroke="#fff" stroke-width="3" stroke-dashoffset="0" stroke-dasharray="40"/><path id="eg1hMC5pZX762" d="M62.8,139.3l20.5-33.8L62.299999,71.9" fill="none" stroke="#fff" stroke-width="3" stroke-miterlimit="4.5" stroke-dashoffset="0" stroke-dasharray="78.461068"/></g><g transform="matrix(-1 0 0-.990176 495.500008 210.493423)"><path id="eg1hMC5pZX764" d="M82.999999,172.7c0,0-62.4-100.8-62.4-100.8c1.463323-.010282,64.116351.289717,124.000001,0c0,0-61.600001,100.8-61.600001,100.8Z" fill="none" stroke="#fff" stroke-width="3" stroke-miterlimit="4.5" stroke-dashoffset="0" stroke-dasharray="359.829414"/><path id="eg1hMC5pZX765" d="M83.899999,105.5L123.9,105.6" transform="translate(.000001 0)" fill="none" stroke="#fff" stroke-width="3" stroke-dashoffset="0" stroke-dasharray="40"/><path id="eg1hMC5pZX766" d="M62.8,139.3l20.5-33.8L62.299999,71.9" fill="none" stroke="#fff" stroke-width="3" stroke-miterlimit="4.5" stroke-dashoffset="0" stroke-dasharray="78.461068"/></g><g transform="translate(247.000001 0.000001)"><path id="eg1hMC5pZX768" d="M83.3,173.712163C83.3,173.712163,21.9,71.9,21.9,71.9s122.7,0,122.7,0-61.3,101.812163-61.3,101.812163Z" fill="none" stroke="#fff" stroke-width="3" stroke-miterlimit="4.5" stroke-dashoffset="0" stroke-dasharray="359.829414"/><path id="eg1hMC5pZX769" d="M83.899999,105.5L123.9,105.6" transform="translate(.000001 0)" fill="none" stroke="#fff" stroke-width="3" stroke-dashoffset="0" stroke-dasharray="40"/><path id="eg1hMC5pZX770" d="M62.8,139.3l20.5-33.8-20-33.4" fill="none" stroke="#fff" stroke-width="3" stroke-miterlimit="4.5" stroke-dashoffset="0" stroke-dasharray="78.461068"/></g></g><g transform="translate(740 0.000001)"><path id="eg1hMC5pZX772" d="M-1.655951,174.558116l44.870884-69.008114" transform="matrix(.936019 0 0 1 248.850001 0)" fill="none" stroke="#fff" stroke-width="3" stroke-dashoffset="0" stroke-dasharray="82.313523"/><path id="eg1hMC5pZX773" d="M20.89005,140.924119L42.2,105.5" transform="matrix(.952607 0 0 0.945123 268.799994 40.367482)" fill="none" stroke="#fff" stroke-width="3" stroke-dashoffset="0" stroke-dasharray="80.931226"/><path id="eg1hMC5pZX774" d="M20.89005,140.924119L42.2,105.5" transform="matrix(-.95 0 0 0.945123 144.74555 40.367482)" fill="none" stroke="#fff" stroke-width="3" stroke-dashoffset="0" stroke-dasharray="80.931226"/><path id="eg1hMC5pZX775" d="M20.89005,140.924119L42.2,105.5" transform="matrix(-.95 0 0 0.945123 185.74555 40.367482)" fill="none" stroke="#fff" stroke-width="3" stroke-dashoffset="0" stroke-dasharray="80.931226"/><path id="eg1hMC5pZX776" d="M20.89005,140.924119L42.2,105.5" transform="matrix(-.95 0 0 0.945123 227.145549 40.367482)" fill="none" stroke="#fff" stroke-width="3" stroke-dashoffset="0" stroke-dasharray="80.931226"/><path id="eg1hMC5pZX777" d="M229.3,139.3q39.600001-.777958,39.600001,0t-41.400002-68.200001l42.699999.899999" transform="translate(.000002 0.000002)" fill="none" stroke="#fff" stroke-width="3" stroke-linejoin="bevel" stroke-dashoffset="0" stroke-dasharray="162.154162"/></g><g transform="translate(0 0.000001)"><g transform="matrix(-1 0 0-.990176 494.500008 210.493423)"><path id="eg1hMC5pZX780" d="M82.999999,172.7c0,0-62.4-100.8-62.4-100.8c1.463323-.010282,64.116351.289717,124.000001,0c0,0-61.600001,100.8-61.600001,100.8Z" fill="none" stroke="#fff" stroke-width="3" stroke-miterlimit="4.5" stroke-dashoffset="0" stroke-dasharray="359.829414"/><path id="eg1hMC5pZX781" d="M83.899999,105.5L123.9,105.6" transform="translate(.000001 0)" fill="none" stroke="#fff" stroke-width="3" stroke-dashoffset="0" stroke-dasharray="40"/><path id="eg1hMC5pZX782" d="M62.8,139.3l20.5-33.8L62.299999,71.9" fill="none" stroke="#fff" stroke-width="3" stroke-miterlimit="4.5" stroke-dashoffset="0" stroke-dasharray="78.461068"/></g><g transform="translate(247.000001 0.000001)"><path id="eg1hMC5pZX784" d="M83.3,173.712163C83.3,173.712163,21.9,71.9,21.9,71.9s122.7,0,122.7,0-61.3,101.812163-61.3,101.812163Z" transform="translate(-1 0)" fill="none" stroke="#fff" stroke-width="3" stroke-miterlimit="4.5" stroke-dashoffset="0" stroke-dasharray="359.829414"/><path id="eg1hMC5pZX785" d="M83.899999,105.5L123.9,105.6" transform="translate(.000001 0)" fill="none" stroke="#fff" stroke-width="3" stroke-dashoffset="0" stroke-dasharray="40"/><path id="eg1hMC5pZX786" d="M62.8,139.3l20.5-33.8-20-33.4" transform="translate(-1 0)" fill="none" stroke="#fff" stroke-width="3" stroke-miterlimit="4.5" stroke-dashoffset="0" stroke-dasharray="78.461068"/></g><g transform="translate(371.000001-66.999999)"><path id="eg1hMC5pZX788" d="M82.999999,172.7c0,0-62.4-100.8-62.4-100.8c1.463323-.010282,64.116351.289717,124.000001,0c0,0-61.600001,100.8-61.600001,100.8Z" fill="none" stroke="#fff" stroke-width="3" stroke-miterlimit="4.5" stroke-dashoffset="0" stroke-dasharray="359.829414"/><path id="eg1hMC5pZX789" d="M83.899999,105.5L123.9,105.6" transform="translate(.000001 0)" fill="none" stroke="#fff" stroke-width="3" stroke-dashoffset="0" stroke-dasharray="40"/><path id="eg1hMC5pZX790" d="M62.8,139.3l20.5-33.8L62.299999,71.9" transform="translate(-1 0)" fill="none" stroke="#fff" stroke-width="3" stroke-miterlimit="4.5" stroke-dashoffset="0" stroke-dasharray="78.461068"/></g></g></mask></g></svg>